<?xml version="1.0" encoding="utf-8"?>
<!-- Generator: Adobe Illustrator 17.1.0, SVG Export Plug-In . SVG Version: 6.00 Build 0)  -->
<!DOCTYPE svg PUBLIC "-//W3C//DTD SVG 1.1//EN" "http://www.w3.org/Graphics/SVG/1.1/DTD/svg11.dtd">
<svg version="1.1" id="Layer_1" xmlns="http://www.w3.org/2000/svg" xmlns:xlink="http://www.w3.org/1999/xlink" x="0px" y="0px"
	 viewBox="0 0 214.7 74.7" enable-background="new 0 0 214.7 74.7" xml:space="preserve">
<g>
	<g>
		<polygon fill="#B4B3B4" points="31.2,23.7 21.3,23.7 33.9,54.9 33.9,31.2 		"/>
		<polygon fill="#DCAB30" points="55.4,23.7 45.7,23.7 42.8,31.7 42.8,54.9 		"/>
		<polygon fill="#74CBC7" points="42.4,55.7 34.3,55.7 33.9,54.9 33.9,59.8 42.8,59.8 42.8,54.9 		"/>
		<polygon fill="#74CBC7" points="42.8,31.7 45.7,23.7 31.2,23.7 33.9,31.2 38.4,43.8 		"/>
		<polygon fill="#525352" points="42.4,55.7 42.8,54.9 42.8,31.7 38.4,43.8 33.9,31.2 33.9,54.9 34.3,55.7 		"/>
		<polygon fill="#504142" points="42.4,55.7 42.8,54.9 42.8,31.7 38.4,43.8 33.9,31.2 33.9,54.9 34.3,55.7 		"/>
	</g>
	<circle fill="#504142" cx="38.4" cy="14.8" r="5.4"/>
	<circle fill="#B4B3B4" cx="26.4" cy="17.3" r="4.3"/>
	<circle fill="#DCAB30" cx="50.4" cy="17.3" r="4.3"/>
</g>
<g opacity="0.9">
	<path fill="#504142" d="M33.9,23.5h9v32.4h-9V23.5z"/>
	<path fill="#504142" d="M50.7,23.5h8.4l13.3,17.1V23.5h8.9v32.4h-7.9L59.6,38.1v17.8h-8.9V23.5z"/>
	<path fill="#504142" d="M86.1,23.5h10.1l7.4,20.5l7.4-20.5h9.9l-13.2,32.7h-8.3L86.1,23.5z"/>
	<path fill="#504142" d="M126.5,23.5h26.1v7.6h-17.2V36h15.6v7.1h-15.6v5.1h17.4v7.6h-26.3V23.5z"/>
	<path fill="#504142" d="M161.5,23.5h15.3c5,0,8.4,1.3,10.6,3.5c1.9,1.9,2.9,4.4,2.9,7.5v0.1c0,5-2.6,8.2-6.7,10l7.7,11.3H181
		l-6.5-9.8h-3.9v9.8h-9V23.5z M176.4,39c3.1,0,4.8-1.5,4.8-3.8v-0.1c0-2.5-1.9-3.8-4.9-3.8h-5.9V39H176.4z"/>
</g>
</svg>
